
<svg width="15" height="14" viewBox="0 0 15 14" fill="none" xmlns="http://www.w3.org/2000/svg">
<path d="M7.50011 3.19843L6.91753 2.60883C5.55005 1.22484 3.0426 1.70244 2.13745 3.44243C1.7125 4.26083 1.61662 5.44242 2.39258 6.95042C3.1401 8.40241 4.69528 10.1416 7.50011 12.036C10.3049 10.1416 11.8593 8.40241 12.6076 6.95042C13.3836 5.44162 13.2885 4.26083 12.8628 3.44243C11.9576 1.70244 9.45017 1.22404 8.08269 2.60803L7.50011 3.19843ZM7.50011 13C-4.95833 4.89443 3.66418 -1.43195 7.35711 1.91444C7.40586 1.95844 7.4538 2.00404 7.50011 2.05124C7.54596 2.00408 7.59366 1.95871 7.64312 1.91524C11.3352 -1.43355 19.9586 4.89363 7.50011 13Z" fill="#00575C" stroke="#00575C" stroke-width="0.25"/>
</svg>
