
<svg width="21" height="20" viewBox="0 0 21 20" fill="none" xmlns="http://www.w3.org/2000/svg">
<path d="M10.7293 6.14761C9.70734 6.14761 8.72723 6.55359 8.00459 7.27623C7.28195 7.99887 6.87598 8.97898 6.87598 10.0009C6.87598 11.0229 7.28195 12.003 8.00459 12.7257C8.72723 13.4483 9.70734 13.8543 10.7293 13.8543C11.7513 13.8543 12.7314 13.4483 13.454 12.7257C14.1767 12.003 14.5826 11.0229 14.5826 10.0009C14.5826 8.97898 14.1767 7.99887 13.454 7.27623C12.7314 6.55359 11.7513 6.14761 10.7293 6.14761ZM10.7293 12.5034C10.0654 12.5034 9.42865 12.2397 8.95919 11.7702C8.48972 11.3008 8.22598 10.664 8.22598 10.0001C8.22598 9.33619 8.48972 8.69946 8.95919 8.22999C9.42865 7.76052 10.0654 7.49678 10.7293 7.49678C11.3932 7.49678 12.03 7.76052 12.4994 8.22999C12.9689 8.69946 13.2326 9.33619 13.2326 10.0001C13.2326 10.664 12.9689 11.3008 12.4994 11.7702C12.03 12.2397 11.3932 12.5034 10.7293 12.5034Z" fill="#00575C"/>
<path d="M14.7348 6.9043C15.2309 6.9043 15.6331 6.5021 15.6331 6.00597C15.6331 5.50983 15.2309 5.10764 14.7348 5.10764C14.2386 5.10764 13.8364 5.50983 13.8364 6.00597C13.8364 6.5021 14.2386 6.9043 14.7348 6.9043Z" fill="#00575C"/>
<path d="M17.8406 5.09264C17.6477 4.59445 17.3529 4.14204 16.9751 3.76435C16.5972 3.38667 16.1447 3.09203 15.6464 2.8993C15.0634 2.68043 14.4474 2.56209 13.8248 2.5493C13.0223 2.5143 12.7681 2.5043 10.7331 2.5043C8.69811 2.5043 8.43728 2.5043 7.64145 2.5493C7.01927 2.56143 6.40374 2.6798 5.82145 2.8993C5.32306 3.0918 4.87042 3.38636 4.49256 3.76408C4.1147 4.14179 3.81997 4.59432 3.62728 5.09264C3.40837 5.67565 3.29029 6.29167 3.27811 6.9143C3.24228 7.71597 3.23145 7.97014 3.23145 10.006C3.23145 12.041 3.23145 12.3001 3.27811 13.0976C3.29061 13.721 3.40811 14.336 3.62728 14.9201C3.82051 15.4183 4.11553 15.8706 4.49348 16.2483C4.87143 16.6259 5.324 16.9206 5.82228 17.1135C6.40347 17.3411 7.01925 17.468 7.64311 17.4885C8.44561 17.5235 8.69978 17.5343 10.7348 17.5343C12.7698 17.5343 13.0306 17.5343 13.8264 17.4885C14.449 17.4758 15.065 17.3577 15.6481 17.1393C16.1462 16.9461 16.5986 16.6512 16.9764 16.2734C17.3542 15.8957 17.6491 15.4433 17.8423 14.9451C18.0614 14.3618 18.1789 13.7468 18.1914 13.1235C18.2273 12.3218 18.2381 12.0676 18.2381 10.0318C18.2381 7.99597 18.2381 7.73764 18.1914 6.94014C18.1817 6.3087 18.0631 5.68368 17.8406 5.09264ZM16.8256 13.036C16.8202 13.5162 16.7326 13.992 16.5664 14.4426C16.4413 14.7667 16.2497 15.061 16.004 15.3065C15.7583 15.5521 15.4639 15.7435 15.1398 15.8685C14.6941 16.0338 14.2234 16.1215 13.7481 16.1276C12.9564 16.1643 12.7331 16.1735 10.7031 16.1735C8.67145 16.1735 8.46394 16.1735 7.65728 16.1276C7.18222 16.1218 6.71172 16.0341 6.26645 15.8685C5.94118 15.7443 5.64561 15.5532 5.39885 15.3076C5.15209 15.062 4.95964 14.7673 4.83395 14.4426C4.67015 13.9968 4.58254 13.5267 4.57478 13.0518C4.53895 12.2601 4.53061 12.0368 4.53061 10.0068C4.53061 7.97597 4.53061 7.76847 4.57478 6.96097C4.58016 6.48099 4.66782 6.00549 4.83395 5.55514C5.08811 4.89764 5.60895 4.38014 6.26645 4.12847C6.71194 3.96359 7.1823 3.87594 7.65728 3.8693C8.44978 3.83347 8.67228 3.82347 10.7031 3.82347C12.7339 3.82347 12.9423 3.82347 13.7481 3.8693C14.2235 3.87502 14.6942 3.9627 15.1398 4.12847C15.4639 4.2537 15.7582 4.4453 16.0039 4.69099C16.2496 4.93668 16.4412 5.23103 16.5664 5.55514C16.7302 6.00093 16.8179 6.4711 16.8256 6.94597C16.8614 7.73847 16.8706 7.96097 16.8706 9.9918C16.8706 12.0218 16.8706 12.2401 16.8348 13.0368H16.8256V13.036Z" fill="#00575C"/>
</svg>
