
<svg width="21" height="20" viewBox="0 0 21 20" fill="none" xmlns="http://www.w3.org/2000/svg">
<path d="M19.1147 5.78333C19.0151 5.41231 18.8198 5.07396 18.5483 4.80215C18.2769 4.53033 17.9388 4.33459 17.5679 4.2345C16.2026 3.86731 10.73 3.86731 10.73 3.86731C10.73 3.86731 5.25732 3.86731 3.89209 4.23254C3.52104 4.33231 3.18276 4.52795 2.91124 4.79981C2.63972 5.07167 2.44451 5.41019 2.34521 5.78137C1.97998 7.14856 1.97998 10.0001 1.97998 10.0001C1.97998 10.0001 1.97998 12.8517 2.34521 14.2169C2.54639 14.9708 3.14014 15.5646 3.89209 15.7657C5.25732 16.1329 10.73 16.1329 10.73 16.1329C10.73 16.1329 16.2026 16.1329 17.5679 15.7657C18.3218 15.5646 18.9136 14.9708 19.1147 14.2169C19.48 12.8517 19.48 10.0001 19.48 10.0001C19.48 10.0001 19.48 7.14856 19.1147 5.78333ZM8.9917 12.6173V7.38293L13.5229 9.98059L8.9917 12.6173Z" fill="#00575C"/>
</svg>
