
<svg width="21" height="20" viewBox="0 0 21 20" fill="none" xmlns="http://www.w3.org/2000/svg">
<g clip-path="url(#clip0_76_12415)">
<path d="M20.4324 4.1143C19.7366 4.42264 18.9891 4.63097 18.2032 4.72514C19.0141 4.23996 19.6207 3.47636 19.9099 2.5768C19.1481 3.02929 18.3144 3.3478 17.4449 3.51847C16.8602 2.89419 16.0858 2.48041 15.2418 2.34136C14.3979 2.20232 13.5317 2.34579 12.7776 2.74951C12.0236 3.15323 11.4239 3.7946 11.0717 4.57406C10.7195 5.35351 10.6345 6.22743 10.8299 7.06014C9.28631 6.98263 7.77627 6.58143 6.39776 5.88256C5.01926 5.18369 3.80311 4.20277 2.82824 3.00347C2.49491 3.57847 2.30324 4.24514 2.30324 4.95514C2.30287 5.5943 2.46027 6.22367 2.76147 6.78741C3.06268 7.35115 3.49838 7.83183 4.02991 8.1868C3.41347 8.16719 2.81064 8.00062 2.27158 7.70097V7.75097C2.27151 8.64742 2.5816 9.51628 3.14923 10.2101C3.71685 10.904 4.50705 11.3801 5.38574 11.5576C4.8139 11.7124 4.21436 11.7352 3.63241 11.6243C3.88032 12.3956 4.36324 13.0702 5.01355 13.5534C5.66386 14.0367 6.44901 14.3045 7.25908 14.3193C5.88394 15.3988 4.18565 15.9844 2.43741 15.9818C2.12773 15.9819 1.81831 15.9638 1.51074 15.9276C3.28531 17.0686 5.35103 17.6742 7.46074 17.6718C14.6024 17.6718 18.5066 11.7568 18.5066 6.6268C18.5066 6.46013 18.5024 6.2918 18.4949 6.12513C19.2543 5.57595 19.9098 4.89588 20.4307 4.1168L20.4324 4.1143Z" fill="#00575C"/>
</g>
<defs>
<clipPath id="clip0_76_12415">
<rect width="20" height="20" fill="white" transform="translate(0.72998 0.00012207)"/>
</clipPath>
</defs>
</svg>
