
<svg width="22" height="22" viewBox="0 0 22 22" fill="none" xmlns="http://www.w3.org/2000/svg">
<g clip-path="url(#clip0_34_11864)">
<path d="M17.1875 18.5625C17.1875 18.8344 17.1069 19.1003 16.9558 19.3264C16.8047 19.5525 16.5899 19.7288 16.3387 19.8328C16.0874 19.9369 15.811 19.9641 15.5442 19.9111C15.2775 19.858 15.0325 19.7271 14.8402 19.5348C14.6479 19.3425 14.517 19.0975 14.4639 18.8307C14.4109 18.564 14.4381 18.2876 14.5422 18.0363C14.6462 17.7851 14.8225 17.5703 15.0486 17.4192C15.2747 17.2681 15.5405 17.1875 15.8125 17.1875C16.1772 17.1875 16.5269 17.3324 16.7848 17.5902C17.0426 17.8481 17.1875 18.1978 17.1875 18.5625ZM6.875 17.1875C6.60305 17.1875 6.33721 17.2681 6.11109 17.4192C5.88497 17.5703 5.70874 17.7851 5.60466 18.0363C5.50059 18.2876 5.47336 18.564 5.52642 18.8307C5.57947 19.0975 5.71043 19.3425 5.90273 19.5348C6.09503 19.7271 6.34003 19.858 6.60675 19.9111C6.87347 19.9641 7.14994 19.9369 7.40119 19.8328C7.65244 19.7288 7.86718 19.5525 8.01827 19.3264C8.16936 19.1003 8.25 18.8344 8.25 18.5625C8.25 18.1978 8.10513 17.8481 7.84727 17.5902C7.58941 17.3324 7.23967 17.1875 6.875 17.1875ZM19.6023 5.775C19.5378 5.6901 19.4547 5.62116 19.3594 5.57348C19.264 5.5258 19.159 5.50066 19.0523 5.5H4.15078L3.45469 3.05937C3.37122 2.77264 3.19722 2.52061 2.95869 2.34093C2.72015 2.16126 2.42988 2.06358 2.13125 2.0625H0.6875C0.505164 2.0625 0.330295 2.13493 0.201364 2.26386C0.0724328 2.3928 0 2.56766 0 2.75C0 2.93234 0.0724328 3.1072 0.201364 3.23614C0.330295 3.36507 0.505164 3.4375 0.6875 3.4375H2.13125L2.97344 6.36797V6.38516L5.24219 14.3172C5.36677 14.7476 5.6276 15.1261 5.98555 15.3957C6.34349 15.6653 6.77922 15.8116 7.22734 15.8125H15.4602C15.9083 15.8116 16.344 15.6653 16.702 15.3957C17.0599 15.1261 17.3207 14.7476 17.4453 14.3172L19.7141 6.37656C19.7431 6.27447 19.7482 6.16704 19.7288 6.06267C19.7094 5.9583 19.6661 5.85984 19.6023 5.775Z" fill="#00575C"/>
</g>
<defs>
<clipPath id="clip0_34_11864">
<rect width="22" height="22" fill="white"/>
</clipPath>
</defs>
</svg>
