
<svg width="19" height="10" viewBox="0 0 19 10" fill="none" xmlns="http://www.w3.org/2000/svg">
<path d="M0.645307 9.67804C0.784834 9.81433 0.972139 9.89063 1.16718 9.89063C1.36222 9.89063 1.54953 9.81433 1.68906 9.67804L9.49999 2.06398L17.3094 9.67804C17.4489 9.81433 17.6362 9.89063 17.8312 9.89063C18.0263 9.89063 18.2136 9.81433 18.3531 9.67804C18.4212 9.6118 18.4752 9.5326 18.5122 9.44511C18.5491 9.35762 18.5681 9.26363 18.5681 9.16867C18.5681 9.07371 18.5491 8.97971 18.5122 8.89223C18.4752 8.80474 18.4212 8.72554 18.3531 8.65929L10.0453 0.562418C9.89941 0.420209 9.70373 0.340618 9.49999 0.340618C9.29626 0.340618 9.10058 0.420209 8.95468 0.562418L0.646869 8.65929C0.578833 8.72554 0.524756 8.80474 0.487832 8.89222C0.450908 8.97971 0.431885 9.07371 0.431885 9.16867C0.431885 9.26363 0.450908 9.35762 0.487832 9.44511C0.524756 9.5326 0.578833 9.6118 0.646869 9.67804L0.645307 9.67804Z" fill="#00575C"/>
</svg>
