
<svg width="10" height="19" viewBox="0 0 10 19" fill="none" xmlns="http://www.w3.org/2000/svg">
<path d="M9.67804 18.3547C9.81433 18.2152 9.89062 18.0279 9.89062 17.8328C9.89062 17.6378 9.81433 17.4505 9.67804 17.3109L2.06398 9.50001L9.67804 1.69063C9.81433 1.5511 9.89062 1.3638 9.89062 1.16875C9.89062 0.973713 9.81433 0.786407 9.67804 0.646879C9.6118 0.578842 9.53259 0.524767 9.44511 0.487843C9.35762 0.450918 9.26362 0.431896 9.16867 0.431896C9.07371 0.431896 8.97971 0.450918 8.89222 0.487843C8.80474 0.524767 8.72553 0.578842 8.65929 0.646879L0.562417 8.95469C0.420208 9.10059 0.340617 9.29627 0.340617 9.50001C0.340617 9.70374 0.420208 9.89942 0.562417 10.0453L8.65929 18.3531C8.72554 18.4212 8.80474 18.4752 8.89222 18.5122C8.97971 18.5491 9.07371 18.5681 9.16867 18.5681C9.26363 18.5681 9.35762 18.5491 9.44511 18.5122C9.5326 18.4752 9.6118 18.4212 9.67804 18.3531L9.67804 18.3547Z" fill="white"/>
</svg>
