
<svg width="15" height="14" viewBox="0 0 15 14" fill="none" xmlns="http://www.w3.org/2000/svg">
<path d="M7.50011 12.036L6.91753 2.60883C5.55005 1.22484 13.6202 5.26001 12.7151 7C12.2901 7.8184 1.72404 5.492 2.5 7C3.24752 8.452 10.5 3 7.50011 12.036C6.5 10.5 2.10742 5.04958 12.7151 7C13.491 5.4912 2.92576 7.8184 2.5 7C1.59485 5.26001 9.45017 1.22404 8.08269 2.60803L7.50011 12.036ZM7.50011 13C-4.95833 4.89443 3.66418 -1.43195 7.35711 1.91444C7.64312 4 7.50011 4 7.50011 2.05124C7.54596 2.00408 7.59366 1.95871 7.64312 1.91524C11.3352 -1.43355 19.9586 4.89363 7.50011 13Z" fill="#00575C"/>
<path d="M7.50011 12.036L6.91753 2.60883C5.55005 1.22484 13.6202 5.26001 12.7151 7M7.50011 12.036C10.5 3 3.24752 8.452 2.5 7M7.50011 12.036C6.5 10.5 2.10742 5.04958 12.7151 7M7.50011 12.036L8.08269 2.60803C9.45017 1.22404 1.59485 5.26001 2.5 7M12.7151 7C12.2901 7.8184 1.72404 5.492 2.5 7M12.7151 7C13.491 5.4912 2.92576 7.8184 2.5 7M7.50011 13C-4.95833 4.89443 3.66418 -1.43195 7.35711 1.91444C7.64312 4 7.50011 4 7.50011 2.05124C7.54596 2.00408 7.59366 1.95871 7.64312 1.91524C11.3352 -1.43355 19.9586 4.89363 7.50011 13Z" stroke="#00575C" stroke-width="0.25"/>
</svg>
