
<svg width="16" height="15" viewBox="0 0 16 15" fill="none" xmlns="http://www.w3.org/2000/svg">
<path d="M15.1109 6.45779C15.2761 6.33473 15.3986 6.16307 15.4613 5.96686C15.524 5.77065 15.5237 5.55974 15.4605 5.36371C15.3973 5.16767 15.2743 4.99633 15.1087 4.87372C14.9432 4.75111 14.7435 4.68337 14.5375 4.68001L10.5375 4.5289C10.5179 4.52754 10.499 4.52053 10.4833 4.5087C10.4675 4.49687 10.4555 4.48073 10.4487 4.46223L9.06643 0.7289C8.99699 0.538962 8.87085 0.374952 8.7051 0.259076C8.53935 0.1432 8.342 0.0810547 8.13977 0.0810547C7.93753 0.0810547 7.74018 0.1432 7.57443 0.259076C7.40868 0.374952 7.28255 0.538962 7.2131 0.7289L5.83532 4.47557C5.82851 4.49407 5.8165 4.5102 5.80073 4.52203C5.78496 4.53386 5.7661 4.54088 5.74643 4.54223L1.74643 4.69335C1.54048 4.69671 1.34074 4.76444 1.17523 4.88705C1.00972 5.00966 0.886727 5.181 0.823504 5.37704C0.760282 5.57308 0.759998 5.78399 0.822693 5.98019C0.885388 6.1764 1.00792 6.34807 1.1731 6.47112L4.31088 8.93779C4.32658 8.95015 4.33832 8.96684 4.34464 8.9858C4.35096 9.00475 4.35158 9.02515 4.34643 9.04446L3.26643 12.8711C3.21047 13.066 3.21589 13.2734 3.28196 13.465C3.34803 13.6567 3.47155 13.8234 3.6357 13.9424C3.79985 14.0613 3.99667 14.1269 4.19939 14.13C4.40211 14.1332 4.60087 14.0738 4.76866 13.96L8.08421 11.7378C8.10054 11.7265 8.11992 11.7205 8.13977 11.7205C8.15961 11.7205 8.17899 11.7265 8.19532 11.7378L11.5109 13.96C11.6764 14.0777 11.8744 14.141 12.0775 14.141C12.2806 14.141 12.4787 14.0777 12.6442 13.96C12.8084 13.8421 12.932 13.6763 12.9981 13.4853C13.0642 13.2943 13.0694 13.0875 13.0131 12.8933L11.9242 9.05335C11.9184 9.03407 11.9188 9.01348 11.9251 8.99439C11.9315 8.9753 11.9436 8.95864 11.9598 8.94668L15.1109 6.45779ZM11.0664 9.27112L12.1553 13.1111C12.1642 13.1316 12.1658 13.1546 12.1598 13.1761C12.1538 13.1976 12.1406 13.2165 12.1224 13.2295C12.1042 13.2425 12.0821 13.2488 12.0598 13.2475C12.0375 13.2462 12.0163 13.2373 11.9998 13.2222L8.68421 11C8.52153 10.8899 8.32956 10.831 8.1331 10.8311V0.973344C8.15402 0.971646 8.17488 0.977408 8.19196 0.98961C8.20904 1.00181 8.22125 1.01967 8.22643 1.04001L9.60866 4.77779C9.67561 4.96201 9.79591 5.12211 9.95423 5.23768C10.1125 5.35325 10.3017 5.41904 10.4975 5.42668L14.4975 5.57779C14.5185 5.57745 14.5389 5.58383 14.556 5.59599C14.573 5.60814 14.5856 5.62544 14.5921 5.64533C14.5986 5.66523 14.5985 5.68667 14.5919 5.70651C14.5852 5.72635 14.5724 5.74354 14.5553 5.75557L11.4175 8.22223C11.2605 8.34158 11.1429 8.50547 11.0803 8.69256C11.0177 8.87964 11.0128 9.08125 11.0664 9.27112Z" fill="#FFB800"/>
</svg>
