

<svg width="10" height="19" viewBox="0 0 10 19" fill="none" xmlns="http://www.w3.org/2000/svg">
<path d="M0.321958 0.645307C0.185673 0.784834 0.109375 0.972139 0.109375 1.16718C0.109375 1.36222 0.185673 1.54953 0.321958 1.68906L7.93602 9.49999L0.321958 17.3094C0.185673 17.4489 0.109375 17.6362 0.109375 17.8312C0.109375 18.0263 0.185673 18.2136 0.321958 18.3531C0.388202 18.4212 0.467404 18.4752 0.554891 18.5122C0.642377 18.5491 0.736373 18.5681 0.831333 18.5681C0.926292 18.5681 1.02029 18.5491 1.10778 18.5122C1.19526 18.4752 1.27446 18.4212 1.34071 18.3531L9.43758 10.0453C9.57979 9.89941 9.65938 9.70373 9.65938 9.49999C9.65938 9.29626 9.57979 9.10058 9.43758 8.95468L1.34071 0.646869C1.27446 0.578833 1.19526 0.524756 1.10778 0.487832C1.02029 0.450908 0.926292 0.431885 0.831333 0.431885C0.736373 0.431885 0.642377 0.450908 0.554891 0.487832C0.467404 0.524756 0.388202 0.578833 0.321958 0.646869V0.645307Z" fill="white"/>
</svg>
